<svg xmlns="http://www.w3.org/2000/svg" width="164" height="31" fill="none"><path fill="#fff" d="M.8.56h19.84v5.6h-7.16V30h-5.8V6.16H.8V.56Zm37.622 14.76c0-2.027.387-3.947 1.16-5.76a15.44 15.44 0 0 1 3.2-4.8 15.335 15.335 0 0 1 4.8-3.32c1.813-.8 3.76-1.2 5.84-1.2 2.053 0 3.986.4 5.8 1.2 1.813.8 3.413 1.907 4.8 3.32a14.793 14.793 0 0 1 3.28 4.8c.8 1.813 1.2 3.733 1.2 5.76 0 2.08-.4 4.027-1.2 5.84a14.794 14.794 0 0 1-3.28 4.8 15.441 15.441 0 0 1-4.8 3.2c-1.814.773-3.747 1.16-5.8 1.16-2.08 0-4.027-.387-5.84-1.16a15.439 15.439 0 0 1-4.8-3.2 15.441 15.441 0 0 1-3.2-4.8c-.773-1.813-1.16-3.76-1.16-5.84Zm6 0c0 1.307.227 2.533.68 3.68.48 1.12 1.133 2.12 1.96 3a9.494 9.494 0 0 0 2.92 2c1.12.48 2.333.72 3.64.72 1.253 0 2.413-.24 3.48-.72a8.572 8.572 0 0 0 2.84-2 10 10 0 0 0 1.88-3 9.918 9.918 0 0 0 .68-3.68c0-1.333-.24-2.573-.72-3.72a9.038 9.038 0 0 0-1.92-3 8.31 8.31 0 0 0-2.84-2.04c-1.093-.48-2.28-.72-3.56-.72-1.28 0-2.467.24-3.56.72a8.729 8.729 0 0 0-2.88 2.04 9.035 9.035 0 0 0-1.92 3c-.453 1.147-.68 2.387-.68 3.72ZM89.284 30V.56h8.8c2.96 0 5.48.44 7.56 1.32 2.08.88 3.747 2.053 5 3.52a13.935 13.935 0 0 1 2.8 4.92c.587 1.813.88 3.64.88 5.48 0 2.187-.4 4.16-1.2 5.92a13.494 13.494 0 0 1-3.2 4.48 14.58 14.58 0 0 1-4.72 2.84c-1.786.64-3.68.96-5.68.96h-10.24Zm5.8-5.6h3.44c1.467 0 2.8-.187 4-.56 1.2-.4 2.227-.973 3.08-1.72a7.097 7.097 0 0 0 2-2.8c.48-1.147.72-2.453.72-3.92 0-1.92-.32-3.48-.96-4.68-.613-1.227-1.386-2.173-2.32-2.84-.906-.667-1.84-1.12-2.8-1.36-.96-.267-1.773-.4-2.44-.4h-4.72V24.4Zm38.26-9.08c0-2.027.386-3.947 1.16-5.76a15.435 15.435 0 0 1 3.2-4.8 15.322 15.322 0 0 1 4.8-3.32c1.813-.8 3.76-1.2 5.84-1.2 2.053 0 3.986.4 5.8 1.2 1.813.8 3.413 1.907 4.8 3.32a14.807 14.807 0 0 1 3.28 4.8c.8 1.813 1.2 3.733 1.2 5.76 0 2.08-.4 4.027-1.2 5.84a14.808 14.808 0 0 1-3.28 4.8 15.448 15.448 0 0 1-4.8 3.2c-1.814.773-3.747 1.16-5.8 1.16-2.08 0-4.027-.387-5.84-1.16a15.425 15.425 0 0 1-4.8-3.2 15.436 15.436 0 0 1-3.2-4.8c-.774-1.813-1.16-3.76-1.16-5.84Zm6 0c0 1.307.226 2.533.68 3.68.48 1.12 1.133 2.12 1.96 3a9.484 9.484 0 0 0 2.92 2c1.12.48 2.333.72 3.64.72 1.253 0 2.413-.24 3.48-.72a8.575 8.575 0 0 0 2.84-2c.8-.88 1.426-1.88 1.88-3a9.924 9.924 0 0 0 .68-3.68c0-1.333-.24-2.573-.72-3.72a9.057 9.057 0 0 0-1.92-3 8.313 8.313 0 0 0-2.84-2.04c-1.094-.48-2.28-.72-3.56-.72-1.28 0-2.467.24-3.56.72a8.716 8.716 0 0 0-2.88 2.04 9.025 9.025 0 0 0-1.92 3c-.454 1.147-.68 2.387-.68 3.72Z"/></svg>